<svg width="176" height="51" viewBox="0 0 176 51" fill="none" xmlns="http://www.w3.org/2000/svg">
<path d="M70.4175 23.4095H64.0012V19.6955H81.0584V23.4095H74.642V40.4938H70.4175V23.4095ZM92.7619 37.432C91.3846 39.3343 89.35 40.9387 85.9079 40.9387C81.3386 40.9387 78.0518 37.73 78.0518 32.621C78.0518 27.51 81.4011 24.3012 85.7184 24.3012C90.0376 24.3012 93.3224 27.51 93.3224 32.621V33.7805H82.1815C82.3065 36.2162 83.6213 37.5246 85.8434 37.5246C87.9708 37.5246 89.098 36.1578 89.9126 35.0587L92.7619 37.432ZM89.3823 30.8958C89.1948 28.905 87.9123 27.6871 85.7204 27.6871C83.6555 27.6871 82.3408 29.1425 82.1835 30.8958H89.3823ZM95.3248 24.7461H99.1742V26.4108H99.2367C99.8618 25.2514 101.177 24.4502 102.649 24.4502C103.149 24.4502 103.651 24.5388 104.151 24.7481L103.526 28.4923C103.088 28.3433 102.649 28.2548 102.243 28.2548C100.491 28.2548 99.396 29.3237 99.396 31.85V40.4958H95.3248V24.7461ZM105.381 24.7461H109.105V26.2619H109.168C109.888 25.193 111.39 24.3012 113.174 24.3012C114.959 24.3012 116.617 25.193 117.399 26.3807H117.461C118.276 25.2212 119.871 24.3012 121.781 24.3012C125.818 24.3012 128.227 26.5296 128.227 29.7082V40.4938H124.503V30.5113C124.503 29.0861 123.72 27.8663 121.623 27.8663C119.714 27.8663 118.776 28.9352 118.776 30.302V40.4918H115.052V30.5093C115.052 29.0841 114.112 27.8642 112.172 27.8642C110.232 27.8642 109.325 28.9331 109.325 30.3V40.4898H105.381V24.7461V24.7461ZM131.101 22.4593H135.17V18.8057H131.101V22.4593ZM131.101 40.4918H135.17V24.7461H131.101V40.4918ZM138.057 24.7461H141.969V26.2619H142.032C142.877 25.2212 144.567 24.3012 146.414 24.3012C150.076 24.3012 152.298 26.4692 152.298 30.1832V40.4938H148.228V31.1354C148.228 29.0861 147.541 27.8663 145.319 27.8663C143.316 27.8663 142.127 29.0539 142.127 30.8676V40.4938H138.057V24.7461ZM164.715 38.978H164.653C164.653 38.978 163.495 40.9387 160.146 40.9387C155.859 40.9387 154.169 38.6519 154.169 36.2746C154.169 33.4523 155.829 32.2928 159.803 31.3729C163.747 30.4509 164.09 30.1248 164.09 29.2331C164.09 28.3413 163.245 27.5683 161.273 27.5683C158.801 27.5683 158.176 28.9352 157.768 30.153L154.389 28.8164C155.109 26.4109 157.236 24.3012 161.212 24.3012C164.937 24.3012 168.129 25.9942 168.129 30.5113V40.4938H164.717V38.978H164.715ZM158.081 36.0068C158.081 37.1945 159.083 37.6112 160.523 37.6112C163.183 37.6112 164.215 36.4517 164.215 35.2942V32.5606H164.152C163.965 32.8867 163.84 33.2732 160.616 34.0462C158.299 34.5796 158.081 35.3526 158.081 36.0068ZM170.885 40.4918H175.11V18.8037H170.885V40.4918Z" fill="white"/>
<path d="M50.261 0.857788H31.3709V16.0721H0.890152V34.9299H16.1305V50.1442H35.0207V19.7136H50.261V0.857788ZM31.3709 46.5006H19.7803V31.2864H4.53994V19.7156H31.3729V46.5006H31.3709ZM46.6113 16.0721H35.0207V4.50132H46.6113V16.0721Z" fill="#7AA6B9"/>
</svg>
