<svg width="137" height="76" viewBox="0 0 137 76" fill="none" xmlns="http://www.w3.org/2000/svg">
<path fill-rule="evenodd" clip-rule="evenodd" d="M109.537 13.8192L135.702 10.7666C135.79 10.7746 135.878 10.7835 135.967 10.7915L136.198 10.9234L136.356 11.1381L136.411 11.3983V58.8178C136.398 58.8935 136.397 58.9728 136.37 59.0441C136.314 59.1902 136.207 59.3105 136.069 59.3827C136.001 59.4174 135.922 59.4273 135.849 59.4495L1.35498 75.1414L1.09034 75.1164L0.858677 74.9854L0.700965 74.7707L0.645721 74.5096V27.0902L0.6876 26.8638C0.790959 26.6936 0.801651 26.6233 0.987875 26.5261C1.05648 26.4905 1.13489 26.4807 1.20796 26.4584L24.8763 23.6971V24.9775L1.91811 27.6568V73.795L135.139 58.252V12.1129L109.537 15.1005V13.8192V13.8192ZM29.294 42.7348L29.1309 58.6895C29.1238 59.446 29.5444 59.8238 30.2875 59.7302L31.1723 59.6179C31.951 59.519 32.3448 59.037 32.3529 58.2814L32.5854 35.4471C32.5934 34.6915 32.2085 34.3083 31.4298 34.4073L30.2973 34.5507C29.6245 34.6354 29.196 35.014 28.9768 35.6885L23.7999 51.0204L18.9946 36.9538C18.7888 36.3328 18.3317 36.0672 17.659 36.1519L16.6681 36.2775C15.8894 36.3764 15.4956 36.8576 15.4875 37.6141L15.2541 60.4475C15.247 61.204 15.6319 61.5871 16.4106 61.4882L17.1538 61.3937C17.9325 61.2957 18.362 60.8092 18.37 60.0527L18.5322 44.098L22.5133 55.8587C22.7191 56.5163 23.1406 56.7506 23.7776 56.6704C24.4156 56.5893 24.8433 56.2472 25.0269 55.5406L29.294 42.7348V42.7348ZM39.7867 57.3387L40.0201 34.5053C40.0273 33.7488 39.6067 33.371 38.8636 33.4645L37.8728 33.5902C37.094 33.6891 36.7002 34.1711 36.6922 34.9267L36.4587 57.761C36.4516 58.5166 36.8365 58.8998 37.6153 58.8009L38.6061 58.6752C39.3501 58.5817 39.7787 58.0952 39.7867 57.3387V57.3387ZM53.2715 31.6388L43.6431 32.8595C42.899 32.9531 42.4705 33.4396 42.4624 34.1961L42.4562 34.8082C42.4482 35.6003 42.8688 35.9425 43.6119 35.8489L46.7625 35.4489L46.5478 56.4824C46.5407 57.2389 46.9612 57.6167 47.7043 57.5222L48.6952 57.3966C49.4392 57.303 49.8678 56.8165 49.8758 56.0601L50.0905 35.0274L53.2412 34.6282C54.0199 34.5293 54.4129 34.0838 54.4218 33.2917L54.428 32.6796C54.4352 31.9231 54.0502 31.5399 53.2715 31.6388V31.6388ZM69.1353 53.4396L65.9044 44.3894C67.7524 43.4004 68.8306 41.7163 68.8564 39.1956L68.8992 34.982C68.9375 31.2726 66.6885 29.9388 62.9355 30.4146L57.9093 31.0517C57.1305 31.1497 56.7367 31.6317 56.7287 32.3882L56.4952 55.2216C56.4881 55.9781 56.873 56.3603 57.6518 56.2623L58.6426 56.1367C59.3866 56.0422 59.8152 55.5557 59.8232 54.8002L59.9167 45.652L62.7841 45.2885L62.8197 45.284L65.8394 54.2531C66.0443 54.9106 66.4667 55.145 67.1385 55.0594L68.1302 54.9338C68.9794 54.826 69.375 54.2005 69.1353 53.4396V53.4396ZM72.3011 34.2629L72.1461 49.3898C72.1087 53.0992 74.3576 54.4331 78.1097 53.9572L78.393 53.9216C82.146 53.4458 84.428 51.5381 84.4654 47.8288L84.6204 32.7018C84.6579 28.9925 82.4089 27.6586 78.6568 28.1344L78.3734 28.1701C74.6205 28.6459 72.3394 30.5179 72.3011 34.2629ZM98.9731 25.8472L98.0883 25.9594C97.4156 26.045 96.9513 26.4629 96.8382 27.1971L93.3908 46.3016L90.3595 28.0177C90.2606 27.3111 89.8044 27.0091 89.096 27.0991L88.0696 27.2292C87.2908 27.3281 86.897 27.8457 87.0298 28.6557L91.2577 50.9242C91.3566 51.6308 91.8128 51.9328 92.5212 51.8428L94.0074 51.6548C94.7157 51.5648 95.1791 51.147 95.2931 50.4127L99.9862 27.0135C100.172 26.1635 99.7518 25.7492 98.9731 25.8472V25.8472ZM75.4803 48.3197L75.622 34.4901C75.6442 32.2572 76.6431 31.3751 78.4839 31.1416C80.3248 30.9082 81.3085 31.539 81.2862 33.772L81.1445 47.6016C81.1223 49.8345 80.1225 50.7166 78.2817 50.95C76.4417 51.1835 75.458 50.5526 75.4803 48.3197ZM105.95 48.9541L106.182 26.1207C106.19 25.3642 105.77 24.9864 105.027 25.08L104.035 25.2056C103.256 25.3045 102.862 25.7866 102.855 26.5422L102.622 49.3765C102.614 50.1321 103 50.5152 103.778 50.4163L104.769 50.2907C105.512 50.1971 105.942 49.7106 105.95 48.9541ZM120.945 38.0979L119.953 38.2235C119.21 38.318 118.781 38.8036 118.773 39.5601L118.74 42.8372C118.717 45.0345 117.789 45.9434 115.984 46.1724C114.178 46.4013 113.265 45.7251 113.288 43.5287L113.429 29.6982C113.451 27.5018 114.38 26.593 116.185 26.364C117.991 26.135 118.904 26.8104 118.88 29.0076L118.854 31.6727C118.846 32.4292 119.266 32.8079 120.009 32.7134L121.001 32.5878C121.78 32.4889 122.174 32.0077 122.181 31.2512L122.215 27.9375C122.252 24.3004 120.004 22.8943 116.251 23.3701L116.181 23.379C112.428 23.8548 110.146 25.8347 110.108 29.4719L109.954 44.5979C109.915 48.416 112.165 49.6411 115.918 49.1662L115.988 49.1573C119.74 48.6815 122.022 46.846 122.06 43.0645L122.101 39.1386C122.109 38.3821 121.724 37.999 120.945 38.0979V38.0979ZM60.0379 33.7666L62.7636 33.4218C64.6044 33.1883 65.5881 33.8192 65.565 36.0521L65.5347 39.0049C65.5124 41.2379 64.5135 42.12 62.6727 42.3534L59.947 42.6991L60.0379 33.7666ZM49.6878 22.4363C48.6479 21.8964 49.3554 19.9887 49.8027 19.2598C52.1577 14.8484 56.5006 4.28168 61.1695 2.26262C61.9706 1.93739 61.738 0.484128 60.634 0.791532C59.7243 1.01874 58.9758 1.61751 58.0117 1.73958C55.2585 2.08887 53.3962 1.28962 50.3667 1.7574C47.887 2.12718 45.9651 4.55344 45.5846 6.75606C44.944 10.3068 47.8977 11.9187 50.9111 10.362C51.8236 9.88267 51.3424 8.48821 50.5138 8.87313C48.4403 9.94771 46.6895 9.05045 47.0976 6.78813C47.388 5.26804 48.6702 3.56708 50.3516 3.1581C52.1167 2.73842 53.8168 3.19463 55.7681 3.31135C56.6199 3.39867 56.8623 3.87181 56.2778 4.56146C53.1842 8.61919 50.9281 14.0812 48.3789 18.6014C47.1769 20.5723 46.3838 20.1134 45.3128 19.9129C44.6553 19.7445 43.9674 19.692 43.3054 19.8871C40.6047 20.5099 39.6272 24.6069 42.9213 25.2529C43.4149 25.3295 43.938 25.3197 44.379 25.1798C45.3716 24.998 46.0087 24.5258 46.7313 23.7907C47.2063 23.0868 46.1691 22.2385 45.5026 22.9389C44.8629 23.5795 44.2267 23.9395 43.3757 23.8522C42.0294 23.6864 41.9973 21.4526 43.8418 21.2744C45.6042 21.0793 47.2348 22.9433 48.6283 23.8014C60.0522 30.8601 72.2984 19.3471 80.4478 21.1684C81.6275 21.4384 82.8036 22.0452 83.177 23.257C83.4158 24.0936 85.0143 23.7515 84.3977 22.2064C83.7793 20.7737 82.3857 19.9432 80.8754 19.7151C71.6221 18.2298 60.0958 29.2874 49.6878 22.4363V22.4363ZM82.6869 11.7298L83.945 7.29513C84.2275 6.56003 84.9697 6.57785 85.2415 6.90664C85.5676 7.22919 85.818 7.00198 86.0389 6.88971C86.5655 6.45935 87.2008 6.21075 87.8887 6.15194C88.7423 6.09937 89.9194 6.59389 89.4329 8.47395C89.0604 9.97622 88.4697 11.254 88.0963 12.8409C87.6633 14.7976 87.9716 16.9129 90.2802 17.0964C91.6266 17.2051 93.1467 16.5092 94.0662 15.3295C94.5669 14.7067 94.9055 13.9359 95.0499 13.1902C95.1675 12.4755 95.1497 11.5551 94.6035 11.1203C94.1401 10.7594 93.2589 10.8432 92.8134 11.3751C92.6744 11.5328 92.4534 11.6166 92.261 11.613C92.0685 11.6095 91.8778 11.466 91.8244 11.2771C91.7442 11.0633 91.8012 10.8316 91.9411 10.6463C92.8321 9.58239 94.4565 9.37656 95.4116 10.0947C96.2581 10.7425 96.4381 11.9792 96.2617 13.093C96.0844 14.2621 95.5221 15.4248 94.6881 16.3141C93.4639 17.7005 91.6141 18.4659 89.9381 18.3153C87.1901 18.0471 86.2813 15.505 86.8017 12.9763C87.1492 11.3101 87.7114 10.0912 88.14 8.52563C88.2834 7.94825 87.9279 7.71302 87.5715 7.6747C85.7841 7.59362 84.2373 10.9795 83.8372 12.4292L82.8384 15.9969C82.637 16.8897 81.3459 16.7453 81.4911 15.9434L81.6711 15.3081C81.059 16.1599 80.3462 16.8674 79.5264 17.116C78.8644 17.312 78.2879 17.1891 77.9092 16.65C77.5296 16.0824 77.2258 16.233 76.7812 16.6242C76.3651 17.0412 75.8385 17.3878 75.3137 17.5936C74.403 17.9331 73.6091 17.5865 73.1485 16.8888C72.8847 16.4914 72.7404 15.9728 72.6949 15.3847C71.7531 16.9351 70.5101 18.5016 69.2271 18.449C68.4305 18.4107 67.9404 17.885 67.9199 17.1882C67.9591 16.0637 68.8306 14.2469 69.3393 12.8952C69.5371 12.3383 69.8731 11.7921 69.1611 11.4348C68.9152 11.2976 68.614 11.196 68.3396 11.1194C68.148 11.0597 67.7622 11.1363 67.592 11.5774C67.1688 12.6386 66.6912 13.6784 66.1299 14.729C66.0604 14.8555 65.9517 14.9375 65.8349 14.9767C65.4099 15.7394 64.9297 16.3925 64.2106 16.8469C63.5468 17.2666 62.9124 17.4591 62.3626 17.4163C61.8948 17.4199 61.6453 17.6194 61.2836 18.0008C60.503 19.0228 59.5603 19.7579 58.5152 19.8069C53.9478 19.994 56.8062 9.44695 60.986 9.42111C63.3793 9.39706 63.6225 12.472 62.6593 15.2805C62.5168 15.7465 62.5934 16.2963 63.0068 16.2437C63.3098 16.2054 63.6412 16.0797 63.9175 15.9042C64.5822 15.4569 64.976 14.6514 65.368 13.9021C65.5079 13.6882 65.5926 13.4815 65.7048 13.2997C65.7539 13.2053 65.8269 13.1429 65.9089 13.1073C66.2127 12.4631 66.513 11.7601 66.7723 11.0936C66.9692 10.6213 66.914 10.7122 66.7509 10.4529C66.3731 9.74545 66.8552 8.3697 67.3559 7.7745C67.8576 7.17929 68.6524 7.44215 68.7023 7.91172C68.6996 8.1915 68.557 8.71364 68.4421 9.11995C68.4136 9.2634 68.3004 9.58506 68.6568 9.6804C69.1504 9.78554 70.0548 10.1464 70.4914 10.4271C71.4208 11.008 71.1401 11.6032 70.6019 13.0708C70.0655 14.4536 69.3634 15.914 69.3001 16.6776C69.2975 16.985 69.4329 17.1641 69.6797 17.2167C70.5084 17.3851 72.2361 14.3966 72.9079 13.1572C72.9587 12.9407 73.0175 12.7224 73.0834 12.505C73.5967 10.7051 74.6053 8.9266 75.7405 8.16655C76.3767 7.75044 77.0111 7.5856 77.5341 7.5758C77.9743 7.5758 78.3574 7.6952 78.6586 7.82529C79.097 8.02131 79.3741 7.79054 79.5407 7.65688C80.0129 7.23365 80.9182 7.45462 80.5502 8.45257C80.3515 9.00946 79.6726 10.886 79.2146 12.6511C79.0132 13.4878 78.8403 14.2932 78.7789 14.9161C78.7432 15.7322 78.9874 16.0931 79.4828 16.0022C80.7204 15.7412 81.9589 13.1037 82.6869 11.7298V11.7298ZM61.0385 15.1219C60.9004 15.1112 60.7632 15.129 60.6527 15.1709C60.3213 15.2965 60.152 15.6824 60.1217 15.9942C60.119 16.2179 60.1992 16.4593 60.3346 16.6946C60.4157 16.8523 60.5235 17.034 60.356 17.3076C59.882 17.9545 59.2993 18.4205 58.6657 18.5007C56.023 18.8072 58.2514 10.6347 60.9459 10.7131C62.0454 10.7416 62.1078 12.7482 61.5375 14.7236C61.4805 14.9259 61.4511 15.0978 61.0385 15.1219V15.1219ZM78.1195 9.51645C78.3592 10.2409 78.1543 11.4705 77.7836 12.7206C77.3274 14.3173 76.349 15.8401 75.4366 16.3471C74.8004 16.7079 74.4182 16.4763 74.2017 16.0557C73.8524 15.317 74.0047 13.8709 74.4583 12.4702C74.8566 11.1889 75.4741 9.96286 76.0853 9.41042C76.668 8.91679 77.1634 8.7974 77.5198 8.92036C77.7943 8.99788 78.0117 9.22152 78.1195 9.51645V9.51645Z" fill="#0EC0B6"/>
</svg>
